<?xml version="1.0" encoding="UTF-8"?>
<svg version="1.1" viewBox="0 0 2000 2000" width="1280" height="1280" xmlns="http://www.w3.org/2000/svg">
<path transform="translate(1589,17)" d="m0 0 7 1 3-1-2 5-4 8-12 16-14 18-10 14-13 18-12 17-7 10-9 14-2 7-1 3 3-1-2 6-6 10-25 40-9 14-11 17-10 15-10 16-9 14-14 22-12 20-8 13-14 23-12 20-13 21-16 27-11 18-69 115 72 42 14 8 24 14 52 30 27 16 23 13 24 14 13 8v597l-9 6-45 26-24 14-43 25-26 15-48 28-52 30-24 14-52 30-24 14-26 15-29 17-52 30-24 14-26 15-8 4-6-1-13-8-16-9-24-14-21-12-17-10-26-15-24-14-14-8-24-14-26-15-17-10-3-1-36 72-10 19-15 29-10 18-8 16-8 14-8 16-13 23-11 21-10 18-16 28-10 16-2 1v-4l-7 14-9 16-14 26-15 28-17 33-10 19-12 23-17 33-14 24-16 25-5 7h-7l2-6 9-16 15-29 13-26 13-28 14-29 4-11-6 7-9 16-7 14-5 8-1-2 8-20 9-21-14 29-8 15-11 23-26 52-13 23-1 1h-6l-1-5v5h-20l-4-8 1-12 4-16 6-18 11-26 10-30 10-23 13-28 9-19 9-17 11-23 9-17 9-19 9-17 9-19 9-17 71-142 9-17 11-23 35-70 9-17 1-4-24-14-26-15-24-14-28-16-17-10-26-15-24-14-26-15-8-5v-598l3-3 11-6 16-9 24-14 26-15 48-28 26-15 24-14 23-13 17-10 43-25 26-15 24-14 26-15 24-14 43-25 26-15 24-14 23-13 17-10 16-9h6l24 14 16 9 19 11 24 14 26 15 24 14 52 30 24 14 4 3 3-1 7-11 14-20 15-22 14-20 11-15 13-19 11-15 13-19 12-16 11-16 32-46 11-16 14-20 13-18 11-16 24-34 10-14 52-72 24-32 14-19 14-18 10-13 13-16zm-79 134v3zm-2 3m-175 267-10 14-20 30-15 23-12 19-14 22-11 18 1 4 5 3 4-1 9-16 17-28 13-22 12-20 8-14 8-13 6-11 2-4v-4zm-335 91-24 14-26 15-17 10-21 12-22 13-26 15-24 14-26 15-48 28-26 15-24 14-52 30-22 13-26 15-24 14-10 6-2 3v486l1 3 17 9 10 6 41 24 25 14 10 6 24 14 28 16 3-5 9-16 8-16 10-19 8-16 15-29 9-16 8-16 14-26 6-10 7-14 13-23 15-27 14-24 12-21 17-29 15-25 10-17 13-22 42-70 17-28 14-23 14-22 14-20 6-8 10-15 16-26 10-15 11-18 11-17 28-44 10-15 12-19 9-13 1-5-5-4-18-10-95-55-24-14-20-12zm201 116-10 17-14 22-13 21-14 22-9 15-42 69-12 23-15 29-13 23-14 25-14 24-30 54-6 10-3 12-6 11-12 23-13 23-17 32 1 2 8-13 11-18 10-17 9-15 13-23 13-22 17-28 9-16 10-16 17-29 12-20 16-27 15-25 17-29 17-28 12-20 10-17 45-75 5-9 2-5-8-5zm17 9-6 11-17 28-13 22-16 27-14 24-11 18-6 11-14 24-16 28-11 19-14 24-12 21-14 24-9 16-14 25-14 24-16 28-14 26-12 21-16 29-15 27-14 27-3 6 1 2 8-12-1 4-10 21-9 16-20 39-14 28-10 19-57 114v4l11 6 15 9 78 45 24 14 14 8 24 14 21 12h3l27-16 21-12 24-14 43-25 26-15 96-56 23-13 10-6 24-14 21-12 22-13 24-14 28-16 26-15 5-3 1-2v-487l-5-4-26-15-21-12-19-11-24-14-26-15-38-22-24-14-23-13zm-275 448v3zm-17 64 1 2zm-1 2 1 2zm-1 2m-58 26m-1 2m-1 2m-1 2m-1 1 1 2zm-1 2 1 2zm-1 2 1 2zm-1 2 1 2zm-1 2-9 17 1 2 9-17zm-10 19-1 4 2-1zm-2 4-12 22-13 24-10 19-9 19-7 12-9 19-12 24v2l3-1 24-48 8-15 11-23 8-16 12-23 7-13zm-114 223-6 10-9 17-11 23-12 24-10 19-9 17-10 21-22 44 1 3 16-31 10-19 8-15 15-30 10-21 10-19 15-29 5-10zm-90 178-1 4 2-4zm-2 4 1 2z" fill="#B055B2"/>
</svg>
