<svg width="90" height="90" viewBox="0 0 90 90" fill="none" xmlns="http://www.w3.org/2000/svg">
<path d="M39.15 17.11C40.3625 12.035 40.11 9.26249 37.7675 7.91749C35.4275 6.57499 38.61 1.25249 42.71 5.93499C46.8125 10.6175 46.28 14.98 44.365 18.0675C42.4475 21.1525 38.525 19.7175 39.15 17.11ZM37.95 24.4875C35.66 29.18 33.7025 31.1575 31.04 30.705C28.38 30.255 27.4525 36.385 33.5975 35.3775C39.74 34.37 42.1 30.6625 42.585 27.0625C43.0675 23.4625 39.1275 22.0775 37.95 24.4875ZM66.29 40.14C61.11 36.6975 52.835 43.715 52.0425 45.84C51.25 47.965 56.345 54.4925 54.9075 58.19C53.465 61.8825 57.7625 62.61 59.7075 59.4175C61.6525 56.2225 60.4675 50.3875 60.0975 48.995C59.7275 47.6025 65.57 45.9475 69.275 48.9025C72.9775 51.8525 68.4675 41.59 66.29 40.14ZM68.96 38.095C65.095 33.2225 71.3975 24.39 73.445 23.42C75.4975 22.4525 79.875 24.425 83.4375 22.6825C86.9975 20.94 87.8 24.8175 85.0625 27.3675C81.995 30.2225 79.46 30.705 77.265 31.1825C75.8575 31.4875 77.185 36.265 77.2425 41.1075C77.3 45.605 70.585 40.145 68.96 38.095Z" fill="#661D72"/>
<path d="M0.519977 14.13C1.17998 11.4975 12.1625 2.32251 22.125 4.04501C27.185 4.92251 29.48 12.43 34.88 12.615C63.1025 13.5875 90.56 40.46 81.9975 66.0925C78.2325 77.36 67.9525 88.0875 43.345 78.595C38.455 76.71 33.42 73.6325 23.785 75.5275C16.655 76.935 15.9125 83.425 16.7775 86.77C17.4575 89.39 16.375 90.725 15.025 88.6675C11.96 84 11.7325 77.8 16.6325 73.78C26.4125 65.7525 39.7525 70.57 49.475 73.6325C65.6775 78.7425 74.2675 64.505 65.34 47.845C56.5825 31.495 40.81 27.035 30.3275 25.805C27.4075 25.4625 21.23 30.925 16.91 30.16C7.85748 28.5525 0.0449772 16.04 0.519977 14.13Z" fill="#661D72"/>
<path d="M0.52002 14.13C1.18002 11.4975 12.1625 2.32251 22.125 4.04501C27.185 4.92251 29.48 12.43 34.88 12.615C63.1025 13.5875 90.56 40.46 81.9975 66.0925C78.2325 77.36 67.9525 88.0875 43.345 78.595C38.455 76.71 33.42 73.6325 23.785 75.5275C16.655 76.935 15.9125 83.425 16.7775 86.77C17.1125 88.06 17.02 89.035 16.68 89.4525C14.375 86.25 13.275 78.605 18.3325 74.7925C27.18 68.125 39.7525 74.465 51.585 77.3975C77.2125 83.75 82.0425 57.41 71.3525 40.21C58.3875 19.34 17.5 14.375 0.52002 14.13Z" fill="#B055B2"/>
<path d="M17.5 10C18.8807 10 20 8.88071 20 7.5C20 6.11929 18.8807 5 17.5 5C16.1193 5 15 6.11929 15 7.5C15 8.88071 16.1193 10 17.5 10Z" fill="#292F33"/>
<path d="M15 27.5C16.3807 27.5 17.5 26.3807 17.5 25C17.5 23.6193 16.3807 22.5 15 22.5C13.6193 22.5 12.5 23.6193 12.5 25C12.5 26.3807 13.6193 27.5 15 27.5Z" fill="#292F33"/>
</svg>
